# Blender 4.2.1 LTS
# www.blender.org
mtllib key1.mtl
o Brass_Key
v -0.464183 -0.407243 -0.001972
v -0.490710 -0.407243 0.024555
v -0.517237 -0.407243 -0.001972
v -0.490710 -0.407243 -0.028499
v -0.490881 0.145411 0.024555
v -0.490881 0.145411 -0.028499
v -0.524040 0.145411 -0.001972
v -0.457723 0.145411 -0.001972
v -0.490710 -0.439459 -0.031151
v -0.531561 -0.439459 -0.005862
v -0.490710 -0.439459 0.034989
v -0.449859 -0.439459 -0.005862
v -0.464183 -0.471292 -0.001972
v -0.490710 -0.471292 0.024555
v -0.517237 -0.471292 -0.001972
v -0.490710 -0.471292 -0.028499
v -0.490747 -0.279353 0.024555
v -0.490747 -0.279353 -0.028499
v -0.518709 -0.279353 -0.001972
v -0.462786 -0.279353 -0.001972
v -0.490722 -0.361602 0.024555
v -0.490722 -0.361602 -0.028499
v -0.517724 -0.361602 -0.001972
v -0.463721 -0.361602 -0.001972
v -0.476766 -0.279353 0.011292
v -0.477221 -0.361602 0.011292
v -0.476766 -0.279353 -0.015235
v -0.477221 -0.361602 -0.015235
v -0.400435 -0.361602 -0.015235
v -0.400435 -0.279353 -0.015235
v -0.400435 -0.361602 0.011292
v -0.400435 -0.279353 0.011292
v -0.400435 -0.314625 0.011292
v -0.400435 -0.314625 -0.015235
v -0.335265 -0.314625 -0.015235
v -0.335265 -0.314625 0.011292
v -0.335265 -0.361602 0.011292
v -0.335265 -0.361602 -0.015235
v -0.358247 0.376545 -0.001972
v -0.384774 0.376545 0.024555
v -0.411301 0.376545 -0.001972
v -0.384774 0.376545 -0.028499
v -0.424564 0.491410 -0.001972
v -0.437828 0.468437 0.024555
v -0.451091 0.445464 -0.001972
v -0.437828 0.468437 -0.028499
v -0.557198 0.491410 -0.001972
v -0.543935 0.468437 0.024555
v -0.530672 0.445464 -0.001972
v -0.543935 0.468437 -0.028499
v -0.623515 0.376545 -0.001972
v -0.596989 0.376545 0.024555
v -0.570462 0.376545 -0.001972
v -0.596989 0.376545 -0.028499
v -0.557198 0.261681 -0.001972
v -0.543935 0.284654 0.024555
v -0.530672 0.307627 -0.001972
v -0.543935 0.284654 -0.028499
v -0.424564 0.261681 -0.001972
v -0.437828 0.284654 0.024555
v -0.451091 0.307627 -0.001972
v -0.437828 0.284654 -0.028499
v -0.490881 0.284654 0.024555
v -0.490881 0.284654 -0.028499
v -0.524040 0.261681 -0.001972
v -0.457723 0.261681 -0.001972
v -0.457723 0.211494 -0.001972
v -0.524040 0.211494 -0.001972
v -0.490881 0.211494 -0.028499
v -0.490881 0.211494 0.024555
v -0.490881 0.178359 -0.039590
v -0.490881 0.178359 0.035646
v -0.537904 0.178359 -0.001972
v -0.443859 0.178359 -0.001972
v -0.517237 -0.407243 -0.001972
v -0.531561 -0.439459 -0.005862
v -0.464183 -0.407243 -0.001972
v -0.449859 -0.439459 -0.005862
v -0.524040 0.145411 -0.001972
v -0.518709 -0.279353 -0.001972
v -0.457723 0.145411 -0.001972
v -0.462786 -0.279353 -0.001972
v -0.462786 -0.279353 -0.001972
v -0.517724 -0.361602 -0.001972
v -0.463721 -0.361602 -0.001972
v -0.463721 -0.361602 -0.001972
v -0.476766 -0.279353 0.011292
v -0.477221 -0.361602 0.011292
v -0.476766 -0.279353 -0.015235
v -0.477221 -0.361602 -0.015235
v -0.400435 -0.279353 0.011292
v -0.400435 -0.279353 0.011292
v -0.400435 -0.361602 0.011292
v -0.400435 -0.279353 -0.015235
v -0.400435 -0.279353 -0.015235
v -0.400435 -0.361602 -0.015235
v -0.400435 -0.314625 0.011292
v -0.400435 -0.314625 0.011292
v -0.400435 -0.314625 -0.015235
v -0.400435 -0.314625 -0.015235
v -0.335265 -0.314625 -0.015235
v -0.335265 -0.314625 -0.015235
v -0.335265 -0.314625 0.011292
v -0.335265 -0.314625 0.011292
v -0.335265 -0.361602 -0.015235
v -0.335265 -0.361602 -0.015235
v -0.335265 -0.361602 0.011292
v -0.335265 -0.361602 0.011292
v -0.543935 0.468437 0.024555
v -0.596989 0.376545 0.024555
v -0.437828 0.468437 -0.028499
v -0.543935 0.468437 -0.028499
v -0.384774 0.376545 0.024555
v -0.437828 0.468437 0.024555
v -0.384774 0.376545 -0.028499
v -0.437828 0.284654 -0.028499
v -0.437828 0.284654 0.024555
v -0.596989 0.376545 -0.028499
v -0.543935 0.284654 -0.028499
v -0.543935 0.284654 0.024555
v -0.490881 0.284654 0.024555
v -0.490881 0.284654 -0.028499
v -0.524040 0.211494 -0.001972
v -0.457723 0.211494 -0.001972
v -0.443859 0.178359 -0.001972
v -0.537904 0.178359 -0.001972
vn 0.6517 0.1112 -0.7503
vn 0.0004 0.1658 0.9862
vn -0.6517 0.1110 -0.7503
vn 0.0004 0.1412 -0.9900
vn -0.0033 -0.1771 0.9842
vn -0.0033 -0.1771 -0.9842
vn -0.6326 -0.1419 -0.7614
vn 0.6284 -0.1411 -0.7650
vn -0.0000 -0.0015 -1.0000
vn -0.7071 -0.0009 0.7071
vn -0.0000 -0.0016 1.0000
vn 0.7071 -0.0009 0.7071
vn 0.7087 -0.7054 -0.0117
vn -0.0000 -0.6939 0.7200
vn -0.7087 -0.7054 -0.0117
vn -0.0000 -0.6682 -0.7440
vn -0.0035 -0.0043 1.0000
vn -0.0035 -0.0043 -1.0000
vn -0.6751 -0.0042 0.7377
vn -0.0000 1.0000 -0.0000
vn 0.0004 -0.0043 1.0000
vn 0.0004 -0.0043 -1.0000
vn -0.6992 -0.0041 0.7149
vn -0.0000 -1.0000 -0.0000
vn -0.0000 -0.0000 -1.0000
vn 1.0000 -0.0000 -0.0000
vn -0.0000 -0.0000 1.0000
vn -0.7071 -0.0000 0.7071
vn -1.0000 -0.0000 -0.0000
vn 0.7071 -0.0000 -0.7071
vn 0.5000 0.8660 -0.0000
vn -0.3536 -0.6124 0.7071
vn -0.5000 -0.8660 -0.0000
vn 0.3536 0.6124 -0.7071
vn -0.5000 0.8660 -0.0000
vn 0.3536 -0.6124 0.7071
vn 0.5000 -0.8660 -0.0000
vn -0.3536 0.6124 -0.7071
vn 0.7071 -0.0000 0.7071
vn -0.7071 -0.0000 -0.7071
vn 0.3536 0.6124 0.7071
vn -0.3536 -0.6124 -0.7071
vn -0.3536 0.6124 0.7071
vn 0.3536 -0.6124 -0.7071
vn -0.0000 0.7559 0.6547
vn -0.0000 -0.4091 -0.9125
vn -0.5916 -0.8063 -0.0000
vn 0.5916 -0.8063 -0.0000
vn 0.6186 0.1388 0.7733
vn -0.6186 0.1388 0.7733
vn -0.0000 0.1720 -0.9851
vn -0.0000 0.1720 0.9851
vn -0.0000 -0.0008 -1.0000
vn -0.0000 -0.0008 1.0000
vn -0.6247 -0.0005 0.7809
vn 0.6247 -0.0005 0.7809
vn -0.7004 0.1222 0.7032
vn -0.6096 -0.0010 -0.7927
vn 0.7004 0.1224 0.7032
vn 0.6096 -0.0010 -0.7927
vn -0.6326 -0.1419 0.7614
vn -0.6751 -0.0042 -0.7377
vn 0.6284 -0.1411 0.7650
vn 0.6882 -0.0082 0.7254
vn 0.6882 -0.0082 -0.7254
vn -0.6992 -0.0041 -0.7149
vn 0.7008 -0.0071 0.7133
vn 0.7008 -0.0071 -0.7133
vn 0.5332 -0.0032 0.8460
vn 0.5566 -0.0026 0.8308
vn 0.5332 -0.0032 -0.8460
vn 0.5566 -0.0026 -0.8308
vn -0.0000 -0.4091 0.9125
vn -0.0000 0.7559 -0.6547
vn -0.6186 0.1388 -0.7733
vn 0.6186 0.1388 -0.7733
vn 0.6247 -0.0005 -0.7809
vn -0.6247 -0.0005 -0.7809
vt 0.036339 0.570321
vt 0.033321 0.586146
vt 0.021710 0.579830
vt 0.027416 0.568303
vt 0.025344 0.603278
vt 0.009217 0.597521
vt 0.035167 0.554014
vt 0.036309 0.569250
vt 0.027390 0.569706
vt 0.026860 0.557262
vt 0.015122 0.544575
vt 0.027745 0.539379
vt 0.020093 0.559955
vt 0.010983 0.557070
vt 0.020393 0.566935
vt 0.000000 0.584008
vt 0.012148 0.571056
vt 0.117031 0.571775
vt 0.500000 0.579657
vt 0.498417 0.618016
vt 0.115182 0.602763
vt 0.116288 0.540712
vt 0.499999 0.541244
vt 0.058977 0.570619
vt 0.056110 0.593485
vt 0.056815 0.548092
vt 0.058852 0.570774
vt 0.115066 0.507441
vt 0.499885 0.502773
vt 0.115126 0.524900
vt 0.053293 0.536726
vt 0.048648 0.528025
vt 0.113489 0.618479
vt 0.496718 0.656420
vt 0.112709 0.635907
vt 0.047992 0.614519
vt 0.052584 0.605094
vt 0.012500 0.960565
vt 0.073169 0.960564
vt 0.023167 0.971044
vt 0.290375 0.971038
vt 0.241119 0.960562
vt 0.301419 0.960560
vt 0.073169 0.981523
vt 0.012500 0.981523
vt 0.301419 0.981515
vt 0.241120 0.981517
vt 0.323908 0.923973
vt 0.323908 0.863664
vt 0.351776 0.923973
vt 0.426007 0.923973
vt 0.453875 0.863664
vt 0.453875 0.923973
vt 0.213255 0.981519
vt 0.213255 0.960563
vt 0.161771 0.981520
vt 0.161771 0.960563
vt 0.426007 0.975463
vt 0.388891 0.975463
vt 0.388891 0.923973
vt 0.388891 0.923973
vt 0.388891 0.975463
vt 0.351776 0.975463
vt 0.124657 0.960564
vt 0.124658 0.981521
vt 0.388891 0.863305
vt 0.388891 0.863305
vt 0.224585 0.751814
vt 0.170519 0.838767
vt 0.157191 0.814887
vt 0.196410 0.750716
vt 0.144877 0.793418
vt 0.171029 0.750061
vt 0.402743 0.754058
vt 0.376747 0.710479
vt 0.389091 0.689027
vt 0.428210 0.753262
vt 0.456420 0.752085
vt 0.402430 0.665170
vt 0.069260 0.838626
vt 0.082447 0.814684
vt 0.094562 0.793215
vt 0.326526 0.710425
vt 0.314530 0.689011
vt 0.301261 0.665177
vt 0.015000 0.751742
vt 0.043224 0.750519
vt 0.068694 0.749682
vt 0.300448 0.753622
vt 0.275053 0.752876
vt 0.246835 0.751907
vt 0.062595 0.660991
vt 0.079827 0.683560
vt 0.094246 0.704844
vt 0.325474 0.798704
vt 0.311065 0.820063
vt 0.293853 0.842625
vt 0.177693 0.660987
vt 0.160465 0.683543
vt 0.146078 0.704886
vt 0.377255 0.798918
vt 0.391626 0.820168
vt 0.408815 0.842726
vt 0.120149 0.677199
vt 0.351350 0.826450
vt 0.088839 0.654176
vt 0.151452 0.654170
vt 0.382586 0.849500
vt 0.320063 0.849429
vt 0.123041 0.857685
vt 0.140625 0.891818
vt 0.082342 0.890266
vt 0.083289 0.857005
vt 0.121267 0.924725
vt 0.081947 0.923218
vt 0.163025 0.925338
vt 0.145440 0.891205
vt 0.203723 0.892758
vt 0.202777 0.926019
vt 0.164799 0.858298
vt 0.204118 0.859805
vt 0.034884 0.889699
vt 0.032890 0.857427
vt 0.057964 0.848578
vt 0.058342 0.889937
vt 0.056987 0.930586
vt 0.032890 0.921307
vt 0.253175 0.925596
vt 0.228101 0.934445
vt 0.227723 0.893086
vt 0.251182 0.893324
vt 0.253175 0.861716
vt 0.229078 0.852437
s 1
usemtl Keys
f 3/1/3 4/2/4 9/3/9 76/4/58
f 1/5/1 78/6/60 9/3/9 4/2/4
f 2/7/2 75/8/57 10/9/10 11/10/11
f 12/11/12 77/12/59 2/7/2 11/10/11
f 11/10/11 14/13/14 13/14/13 12/11/12
f 11/10/11 10/9/10 15/15/15 14/13/14
f 78/6/60 13/16/13 16/17/16 9/3/9
f 76/4/58 9/3/9 16/17/16 15/15/15
f 13/14/13 14/13/14 15/15/15 16/17/16
f 80/18/62 7/19/7 6/20/6 18/21/18
f 17/22/17 5/23/5 79/19/61 19/18/19
f 3/1/3 84/24/66 22/25/22 4/2/4
f 84/24/66 80/18/62 18/21/18 22/25/22
f 2/7/2 21/26/21 23/27/23 75/8/57
f 21/26/21 17/22/17 19/18/19 23/27/23
f 82/28/64 81/29/63 87/30/69
f 88/31/70 77/12/59 85/32/67
f 89/33/71 8/34/8 83/35/65
f 86/36/68 1/5/1 90/37/72
f 81/29/63 5/23/5 17/22/17 87/30/69
f 17/22/17 21/26/21 88/31/70 87/30/69
f 77/12/59 88/31/70 21/26/21 2/7/2
f 8/34/8 89/33/71 18/21/18 6/20/6
f 18/21/18 89/33/71 90/37/72 22/25/22
f 1/5/1 4/2/4 22/25/22 90/37/72
f 28/38/24 96/39/24 24/40/24
f 20/41/20 94/42/20 27/43/20
f 24/40/24 96/39/24 93/44/24 26/45/24
f 25/46/20 91/47/20 94/42/20 20/41/20
f 92/48/27 87/49/69 97/50/27
f 99/51/25 89/52/71 95/53/25
f 32/47/26 98/54/26 100/55/26 30/42/26
f 33/54/20 103/56/20 101/57/20 34/55/20
f 99/51/25 102/58/25 105/59/25 29/60/25
f 31/61/27 107/62/27 104/63/27 97/50/27
f 96/39/24 106/64/24 108/65/24 93/44/24
f 37/65/26 38/64/26 35/57/26 36/56/26
f 87/49/69 88/66/70 31/61/27 97/50/27
f 89/52/71 99/51/25 29/60/25 90/67/72
f 39/68/26 43/69/31 114/70/41 113/71/39
f 40/71/28 44/70/32 45/72/33 41/73/29
f 41/74/29 45/75/33 111/76/42 115/77/40
f 39/78/26 42/77/30 46/76/34 43/79/31
f 43/69/31 47/80/35 109/81/43 114/70/41
f 44/70/32 48/81/36 49/82/37 45/72/33
f 45/75/33 49/83/37 112/84/44 111/76/42
f 46/76/34 50/84/38 47/85/35 43/79/31
f 47/80/35 51/86/29 110/87/28 109/81/43
f 48/81/36 52/87/39 53/88/26 49/82/37
f 49/83/37 53/89/26 118/90/30 112/84/44
f 50/84/38 54/90/40 51/91/29 47/85/35
f 51/86/29 55/92/33 120/93/32 110/87/28
f 52/87/39 56/93/41 57/94/31 53/88/26
f 53/89/26 57/95/31 119/96/34 118/90/30
f 54/90/40 58/96/42 55/97/33 51/91/29
f 59/98/37 39/68/26 113/71/39 117/99/36
f 60/99/43 40/71/28 41/73/29 61/100/35
f 61/101/35 41/74/29 115/77/40 116/102/38
f 39/78/26 59/103/37 62/102/44 42/77/30
f 63/104/45 60/99/43 61/100/35
f 122/105/74 119/96/34 57/95/31
f 120/93/32 55/92/33 65/106/47 121/104/73
f 117/99/36 121/104/73 66/107/48 59/98/37
f 61/100/35 57/94/31 56/93/41 63/104/45
f 57/95/31 61/101/35 116/102/38 122/105/74
f 62/102/44 59/103/37 66/108/48 64/105/46
f 58/96/42 64/105/46 65/109/47 55/97/33
f 65/110/47 64/111/46 69/112/51 123/113/75
f 64/111/46 66/114/48 124/115/76 69/112/51
f 66/116/48 121/117/73 70/118/52 67/119/49
f 121/117/73 65/120/47 68/121/50 70/118/52
f 6/122/6 7/123/7 126/124/78 71/125/53
f 6/122/6 71/125/53 125/126/77 8/127/8
f 81/128/63 74/129/56 72/130/54 5/131/5
f 79/132/61 5/131/5 72/130/54 73/133/55
f 71/125/53 126/124/78 123/113/75 69/112/51
f 71/125/53 69/112/51 124/115/76 125/126/77
f 74/129/56 67/119/49 70/118/52 72/130/54
f 73/133/55 72/130/54 70/118/52 68/121/50
