# Blender 4.2.1 LTS
# www.blender.org
o Iron_Key
v -0.136152 -0.407233 -0.001972
v -0.162679 -0.407233 0.024555
v -0.189205 -0.407233 -0.001972
v -0.162679 -0.407233 -0.028499
v -0.162850 0.145420 0.024555
v -0.162850 0.145420 -0.028499
v -0.196008 0.145420 -0.001972
v -0.129691 0.145420 -0.001972
v -0.162679 -0.439450 -0.031151
v -0.203530 -0.439450 -0.005862
v -0.162679 -0.439450 0.034989
v -0.121827 -0.439450 -0.005862
v -0.136152 -0.471282 -0.001972
v -0.162679 -0.471282 0.024555
v -0.189205 -0.471282 -0.001972
v -0.162679 -0.471282 -0.028499
v -0.162716 -0.279344 0.024555
v -0.162716 -0.279344 -0.028499
v -0.190677 -0.279344 -0.001972
v -0.134754 -0.279344 -0.001972
v -0.162691 -0.361592 0.024555
v -0.162691 -0.361592 -0.028499
v -0.189693 -0.361592 -0.001972
v -0.135689 -0.361592 -0.001972
v -0.148735 -0.279344 0.011292
v -0.149190 -0.361592 0.011292
v -0.148735 -0.279344 -0.015235
v -0.149190 -0.361592 -0.015235
v -0.072403 -0.361592 -0.015235
v -0.072403 -0.279344 -0.015235
v -0.072403 -0.361592 0.011292
v -0.072403 -0.279344 0.011292
v -0.072403 -0.314616 0.011292
v -0.072403 -0.314616 -0.015235
v -0.007234 -0.314616 -0.015235
v -0.007234 -0.314616 0.011292
v -0.007234 -0.361592 0.011292
v -0.007234 -0.361592 -0.015235
v -0.030216 0.376555 -0.001972
v -0.056742 0.376555 0.024555
v -0.083269 0.376555 -0.001972
v -0.056742 0.376555 -0.028499
v -0.096533 0.491420 -0.001972
v -0.109796 0.468447 0.024555
v -0.123060 0.445474 -0.001972
v -0.109796 0.468447 -0.028499
v -0.229167 0.491420 -0.001972
v -0.215903 0.468447 0.024555
v -0.202640 0.445474 -0.001972
v -0.215903 0.468447 -0.028499
v -0.295484 0.376555 -0.001972
v -0.268957 0.376555 0.024555
v -0.242430 0.376555 -0.001972
v -0.268957 0.376555 -0.028499
v -0.229167 0.261691 -0.001972
v -0.215903 0.284663 0.024555
v -0.202640 0.307636 -0.001972
v -0.215903 0.284663 -0.028499
v -0.096533 0.261691 -0.001972
v -0.109796 0.284663 0.024555
v -0.123060 0.307636 -0.001972
v -0.109796 0.284663 -0.028499
v -0.162850 0.284663 0.024555
v -0.162850 0.284663 -0.028499
v -0.196008 0.261691 -0.001972
v -0.129691 0.261691 -0.001972
v -0.129691 0.211503 -0.001972
v -0.196008 0.211503 -0.001972
v -0.162850 0.211503 -0.028499
v -0.162850 0.211503 0.024555
v -0.162850 0.178369 -0.039590
v -0.162850 0.178369 0.035646
v -0.209872 0.178369 -0.001972
v -0.115827 0.178369 -0.001972
v -0.189205 -0.407233 -0.001972
v -0.203530 -0.439450 -0.005862
v -0.136152 -0.407233 -0.001972
v -0.121827 -0.439450 -0.005862
v -0.196008 0.145420 -0.001972
v -0.190677 -0.279344 -0.001972
v -0.129691 0.145420 -0.001972
v -0.134754 -0.279344 -0.001972
v -0.134754 -0.279344 -0.001972
v -0.189693 -0.361592 -0.001972
v -0.135689 -0.361592 -0.001972
v -0.135689 -0.361592 -0.001972
v -0.148735 -0.279344 0.011292
v -0.149190 -0.361592 0.011292
v -0.148735 -0.279344 -0.015235
v -0.149190 -0.361592 -0.015235
v -0.072403 -0.279344 0.011292
v -0.072403 -0.279344 0.011292
v -0.072403 -0.361592 0.011292
v -0.072403 -0.279344 -0.015235
v -0.072403 -0.279344 -0.015235
v -0.072403 -0.361592 -0.015235
v -0.072403 -0.314616 0.011292
v -0.072403 -0.314616 0.011292
v -0.072403 -0.314616 -0.015235
v -0.072403 -0.314616 -0.015235
v -0.007234 -0.314616 -0.015235
v -0.007234 -0.314616 -0.015235
v -0.007234 -0.314616 0.011292
v -0.007234 -0.314616 0.011292
v -0.007234 -0.361592 -0.015235
v -0.007234 -0.361592 -0.015235
v -0.007234 -0.361592 0.011292
v -0.007234 -0.361592 0.011292
v -0.215903 0.468447 0.024555
v -0.268957 0.376555 0.024555
v -0.109796 0.468447 -0.028499
v -0.215903 0.468447 -0.028499
v -0.056742 0.376555 0.024555
v -0.109796 0.468447 0.024555
v -0.056742 0.376555 -0.028499
v -0.109796 0.284663 -0.028499
v -0.109796 0.284663 0.024555
v -0.268957 0.376555 -0.028499
v -0.215903 0.284663 -0.028499
v -0.215903 0.284663 0.024555
v -0.162850 0.284663 0.024555
v -0.162850 0.284663 -0.028499
v -0.196008 0.211503 -0.001972
v -0.129691 0.211503 -0.001972
v -0.115827 0.178369 -0.001972
v -0.209872 0.178369 -0.001972
vn 0.6517 0.1112 -0.7503
vn 0.0004 0.1658 0.9862
vn -0.6517 0.1110 -0.7503
vn 0.0004 0.1412 -0.9900
vn -0.0033 -0.1771 0.9842
vn -0.0033 -0.1771 -0.9842
vn -0.6326 -0.1419 -0.7614
vn 0.6284 -0.1411 -0.7650
vn -0.0000 -0.0015 -1.0000
vn -0.7071 -0.0009 0.7071
vn -0.0000 -0.0016 1.0000
vn 0.7071 -0.0009 0.7071
vn 0.7087 -0.7054 -0.0117
vn -0.0000 -0.6939 0.7200
vn -0.7087 -0.7054 -0.0117
vn -0.0000 -0.6682 -0.7440
vn -0.0035 -0.0043 1.0000
vn -0.0035 -0.0043 -1.0000
vn -0.6751 -0.0042 0.7377
vn -0.0000 1.0000 -0.0000
vn 0.0004 -0.0043 1.0000
vn 0.0004 -0.0043 -1.0000
vn -0.6992 -0.0041 0.7149
vn -0.0000 -1.0000 -0.0000
vn -0.0000 -0.0000 -1.0000
vn 1.0000 -0.0000 -0.0000
vn -0.0000 -0.0000 1.0000
vn -0.7071 -0.0000 0.7071
vn -1.0000 -0.0000 -0.0000
vn 0.7071 -0.0000 -0.7071
vn 0.5000 0.8660 -0.0000
vn -0.3536 -0.6124 0.7071
vn -0.5000 -0.8660 -0.0000
vn 0.3536 0.6124 -0.7071
vn -0.5000 0.8660 -0.0000
vn 0.3536 -0.6124 0.7071
vn 0.5000 -0.8660 -0.0000
vn -0.3536 0.6124 -0.7071
vn 0.7071 -0.0000 0.7071
vn -0.7071 -0.0000 -0.7071
vn 0.3536 0.6124 0.7071
vn -0.3536 -0.6124 -0.7071
vn -0.3536 0.6124 0.7071
vn 0.3536 -0.6124 -0.7071
vn -0.0000 0.7559 0.6547
vn -0.0000 -0.4091 -0.9125
vn -0.5916 -0.8063 -0.0000
vn 0.5916 -0.8063 -0.0000
vn 0.6186 0.1388 0.7733
vn -0.6186 0.1388 0.7733
vn -0.0000 0.1720 -0.9851
vn -0.0000 0.1720 0.9851
vn -0.0000 -0.0008 -1.0000
vn -0.0000 -0.0008 1.0000
vn -0.6247 -0.0005 0.7809
vn 0.6247 -0.0005 0.7809
vn -0.7004 0.1222 0.7032
vn -0.6096 -0.0010 -0.7927
vn 0.7004 0.1224 0.7032
vn 0.6096 -0.0010 -0.7927
vn -0.6326 -0.1419 0.7614
vn -0.6751 -0.0042 -0.7377
vn 0.6284 -0.1411 0.7650
vn 0.6882 -0.0082 0.7254
vn 0.6882 -0.0082 -0.7254
vn -0.6992 -0.0041 -0.7149
vn 0.7008 -0.0071 0.7133
vn 0.7008 -0.0071 -0.7133
vn 0.5332 -0.0032 0.8460
vn 0.5566 -0.0026 0.8308
vn 0.5332 -0.0032 -0.8460
vn 0.5566 -0.0026 -0.8308
vn -0.0000 -0.4091 0.9125
vn -0.0000 0.7559 -0.6547
vn -0.6186 0.1388 -0.7733
vn 0.6186 0.1388 -0.7733
vn 0.6247 -0.0005 -0.7809
vn -0.6247 -0.0005 -0.7809
vt 0.542082 0.572952
vt 0.539128 0.588444
vt 0.527760 0.582261
vt 0.533347 0.570975
vt 0.531318 0.605216
vt 0.515531 0.599579
vt 0.540934 0.556987
vt 0.542053 0.571903
vt 0.533321 0.572350
vt 0.532802 0.560167
vt 0.521311 0.547747
vt 0.533668 0.542660
vt 0.526178 0.562803
vt 0.517259 0.559979
vt 0.526472 0.569636
vt 0.506507 0.586351
vt 0.518400 0.573671
vt 0.621078 0.574375
vt 0.995993 0.582091
vt 0.994444 0.619644
vt 0.619267 0.604712
vt 0.620350 0.543965
vt 0.995992 0.544486
vt 0.564244 0.573243
vt 0.561438 0.595629
vt 0.562127 0.551190
vt 0.564122 0.573395
vt 0.619153 0.511393
vt 0.995880 0.506824
vt 0.619213 0.528485
vt 0.558680 0.540063
vt 0.554132 0.531545
vt 0.617610 0.620097
vt 0.992780 0.657240
vt 0.616846 0.637159
vt 0.553489 0.616220
vt 0.557986 0.606993
vt 0.518744 0.954989
vt 0.578137 0.954989
vt 0.529187 0.965248
vt 0.790776 0.965242
vt 0.742556 0.954986
vt 0.801587 0.954984
vt 0.578137 0.975506
vt 0.518744 0.975507
vt 0.801588 0.975499
vt 0.742556 0.975501
vt 0.823604 0.919166
vt 0.823604 0.860126
vt 0.850886 0.919166
vt 0.923556 0.919167
vt 0.950838 0.860126
vt 0.950838 0.919167
vt 0.715278 0.975502
vt 0.715277 0.954987
vt 0.664876 0.975504
vt 0.664876 0.954988
vt 0.923556 0.969573
vt 0.887221 0.969573
vt 0.887221 0.919167
vt 0.887221 0.919166
vt 0.887221 0.969574
vt 0.850885 0.969573
vt 0.628543 0.954988
vt 0.628544 0.975505
vt 0.887221 0.859774
vt 0.887221 0.859774
vt 0.726369 0.750628
vt 0.673440 0.835752
vt 0.660393 0.812374
vt 0.698787 0.749553
vt 0.648338 0.791357
vt 0.673940 0.748912
vt 0.900781 0.752825
vt 0.875332 0.710162
vt 0.887416 0.689161
vt 0.925713 0.752046
vt 0.953329 0.750893
vt 0.900474 0.665806
vt 0.574311 0.835614
vt 0.587220 0.812176
vt 0.599081 0.791158
vt 0.826166 0.710110
vt 0.814423 0.689146
vt 0.801433 0.665813
vt 0.521192 0.750557
vt 0.548822 0.749360
vt 0.573756 0.748540
vt 0.800637 0.752398
vt 0.775776 0.751667
vt 0.748152 0.750719
vt 0.567786 0.661714
vt 0.584656 0.683810
vt 0.598771 0.704646
vt 0.825137 0.796531
vt 0.811031 0.817441
vt 0.794180 0.839529
vt 0.680463 0.661711
vt 0.663598 0.683792
vt 0.649514 0.704687
vt 0.875829 0.796741
vt 0.889897 0.817544
vt 0.906725 0.839628
vt 0.624130 0.677582
vt 0.850468 0.823694
vt 0.593478 0.655043
vt 0.654774 0.655037
vt 0.881048 0.846260
vt 0.819840 0.846190
vt 0.626960 0.854272
vt 0.644175 0.887688
vt 0.587117 0.886168
vt 0.588044 0.853607
vt 0.625224 0.919903
vt 0.586731 0.918428
vt 0.666104 0.920503
vt 0.648889 0.887088
vt 0.705947 0.888608
vt 0.705020 0.921169
vt 0.667840 0.854873
vt 0.706333 0.856348
vt 0.540657 0.885614
vt 0.538706 0.854020
vt 0.563252 0.845358
vt 0.563622 0.885846
vt 0.562296 0.925641
vt 0.538706 0.916557
vt 0.754358 0.920756
vt 0.729812 0.929418
vt 0.729442 0.888930
vt 0.752407 0.889162
vt 0.754358 0.858219
vt 0.730768 0.849135
s 1
f 3/1/3 4/2/4 9/3/9 76/4/58
f 1/5/1 78/6/60 9/3/9 4/2/4
f 2/7/2 75/8/57 10/9/10 11/10/11
f 12/11/12 77/12/59 2/7/2 11/10/11
f 11/10/11 14/13/14 13/14/13 12/11/12
f 11/10/11 10/9/10 15/15/15 14/13/14
f 78/6/60 13/16/13 16/17/16 9/3/9
f 76/4/58 9/3/9 16/17/16 15/15/15
f 13/14/13 14/13/14 15/15/15 16/17/16
f 80/18/62 7/19/7 6/20/6 18/21/18
f 17/22/17 5/23/5 79/19/61 19/18/19
f 3/1/3 84/24/66 22/25/22 4/2/4
f 84/24/66 80/18/62 18/21/18 22/25/22
f 2/7/2 21/26/21 23/27/23 75/8/57
f 21/26/21 17/22/17 19/18/19 23/27/23
f 82/28/64 81/29/63 87/30/69
f 88/31/70 77/12/59 85/32/67
f 89/33/71 8/34/8 83/35/65
f 86/36/68 1/5/1 90/37/72
f 81/29/63 5/23/5 17/22/17 87/30/69
f 17/22/17 21/26/21 88/31/70 87/30/69
f 77/12/59 88/31/70 21/26/21 2/7/2
f 8/34/8 89/33/71 18/21/18 6/20/6
f 18/21/18 89/33/71 90/37/72 22/25/22
f 1/5/1 4/2/4 22/25/22 90/37/72
f 28/38/24 96/39/24 24/40/24
f 20/41/20 94/42/20 27/43/20
f 24/40/24 96/39/24 93/44/24 26/45/24
f 25/46/20 91/47/20 94/42/20 20/41/20
f 92/48/27 87/49/69 97/50/27
f 99/51/25 89/52/71 95/53/25
f 32/47/26 98/54/26 100/55/26 30/42/26
f 33/54/20 103/56/20 101/57/20 34/55/20
f 99/51/25 102/58/25 105/59/25 29/60/25
f 31/61/27 107/62/27 104/63/27 97/50/27
f 96/39/24 106/64/24 108/65/24 93/44/24
f 37/65/26 38/64/26 35/57/26 36/56/26
f 87/49/69 88/66/70 31/61/27 97/50/27
f 89/52/71 99/51/25 29/60/25 90/67/72
f 39/68/26 43/69/31 114/70/41 113/71/39
f 40/71/28 44/70/32 45/72/33 41/73/29
f 41/74/29 45/75/33 111/76/42 115/77/40
f 39/78/26 42/77/30 46/76/34 43/79/31
f 43/69/31 47/80/35 109/81/43 114/70/41
f 44/70/32 48/81/36 49/82/37 45/72/33
f 45/75/33 49/83/37 112/84/44 111/76/42
f 46/76/34 50/84/38 47/85/35 43/79/31
f 47/80/35 51/86/29 110/87/28 109/81/43
f 48/81/36 52/87/39 53/88/26 49/82/37
f 49/83/37 53/89/26 118/90/30 112/84/44
f 50/84/38 54/90/40 51/91/29 47/85/35
f 51/86/29 55/92/33 120/93/32 110/87/28
f 52/87/39 56/93/41 57/94/31 53/88/26
f 53/89/26 57/95/31 119/96/34 118/90/30
f 54/90/40 58/96/42 55/97/33 51/91/29
f 59/98/37 39/68/26 113/71/39 117/99/36
f 60/99/43 40/71/28 41/73/29 61/100/35
f 61/101/35 41/74/29 115/77/40 116/102/38
f 39/78/26 59/103/37 62/102/44 42/77/30
f 63/104/45 60/99/43 61/100/35
f 122/105/74 119/96/34 57/95/31
f 120/93/32 55/92/33 65/106/47 121/104/73
f 117/99/36 121/104/73 66/107/48 59/98/37
f 61/100/35 57/94/31 56/93/41 63/104/45
f 57/95/31 61/101/35 116/102/38 122/105/74
f 62/102/44 59/103/37 66/108/48 64/105/46
f 58/96/42 64/105/46 65/109/47 55/97/33
f 65/110/47 64/111/46 69/112/51 123/113/75
f 64/111/46 66/114/48 124/115/76 69/112/51
f 66/116/48 121/117/73 70/118/52 67/119/49
f 121/117/73 65/120/47 68/121/50 70/118/52
f 6/122/6 7/123/7 126/124/78 71/125/53
f 6/122/6 71/125/53 125/126/77 8/127/8
f 81/128/63 74/129/56 72/130/54 5/131/5
f 79/132/61 5/131/5 72/130/54 73/133/55
f 71/125/53 126/124/78 123/113/75 69/112/51
f 71/125/53 69/112/51 124/115/76 125/126/77
f 74/129/56 67/119/49 70/118/52 72/130/54
f 73/133/55 72/130/54 70/118/52 68/121/50
