# Blender 4.2.1 LTS
# www.blender.org
o Silver_Key
v 0.453534 0.370055 -0.001972
v 0.188437 -0.413733 -0.001972
v 0.161910 -0.413733 0.024555
v 0.135383 -0.413733 -0.001972
v 0.161910 -0.413733 -0.028499
v 0.161739 0.138921 0.024555
v 0.161739 0.138921 -0.028499
v 0.128580 0.138921 -0.001972
v 0.194897 0.138921 -0.001972
v 0.161910 -0.445949 -0.031151
v 0.121059 -0.445949 -0.005862
v 0.161910 -0.445949 0.034989
v 0.202761 -0.445949 -0.005862
v 0.188437 -0.477782 -0.001972
v 0.161910 -0.477782 0.024555
v 0.135383 -0.477782 -0.001972
v 0.161910 -0.477782 -0.028499
v 0.161873 -0.285843 0.024555
v 0.161873 -0.285843 -0.028499
v 0.133911 -0.285843 -0.001972
v 0.189834 -0.285843 -0.001972
v 0.161898 -0.368092 0.024555
v 0.161898 -0.368092 -0.028499
v 0.134896 -0.368092 -0.001972
v 0.188899 -0.368092 -0.001972
v 0.175854 -0.285843 0.011292
v 0.175399 -0.368092 0.011292
v 0.175854 -0.285843 -0.015235
v 0.175399 -0.368092 -0.015235
v 0.252185 -0.368092 -0.015235
v 0.252185 -0.285843 -0.015235
v 0.252185 -0.368092 0.011292
v 0.252185 -0.285843 0.011292
v 0.252185 -0.321115 0.011292
v 0.252185 -0.321115 -0.015235
v 0.317355 -0.321115 -0.015235
v 0.317355 -0.321115 0.011292
v 0.317355 -0.368092 0.011292
v 0.317355 -0.368092 -0.015235
v 0.294373 0.370055 -0.001972
v 0.267846 0.370055 0.024555
v 0.241319 0.370055 -0.001972
v 0.267846 0.370055 -0.028499
v 0.228056 0.484920 -0.001972
v 0.214792 0.461947 0.024555
v 0.201529 0.438974 -0.001972
v 0.214792 0.461947 -0.028499
v 0.095422 0.484920 -0.001972
v 0.108685 0.461947 0.024555
v 0.121948 0.438974 -0.001972
v 0.108685 0.461947 -0.028499
v 0.029105 0.370055 -0.001972
v 0.055631 0.370055 0.024555
v 0.082158 0.370055 -0.001972
v 0.055631 0.370055 -0.028499
v 0.095422 0.255191 -0.001972
v 0.108685 0.278164 0.024555
v 0.121948 0.301137 -0.001972
v 0.108685 0.278164 -0.028499
v 0.228056 0.255191 -0.001972
v 0.214792 0.278164 0.024555
v 0.201529 0.301137 -0.001972
v 0.214792 0.278164 -0.028499
v 0.161739 0.278164 0.024555
v 0.161739 0.278164 -0.028499
v 0.128580 0.255191 -0.001972
v 0.194897 0.255191 -0.001972
v 0.194897 0.205004 -0.001972
v 0.128580 0.205004 -0.001972
v 0.161739 0.205004 -0.028499
v 0.161739 0.205004 0.024555
v 0.161739 0.171869 -0.039590
v 0.161739 0.171869 0.035646
v 0.114716 0.171869 -0.001972
v 0.208761 0.171869 -0.001972
v 0.135383 -0.413733 -0.001972
v 0.121059 -0.445949 -0.005862
v 0.188437 -0.413733 -0.001972
v 0.202761 -0.445949 -0.005862
v 0.128580 0.138921 -0.001972
v 0.133911 -0.285843 -0.001972
v 0.194897 0.138921 -0.001972
v 0.189834 -0.285843 -0.001972
v 0.189834 -0.285843 -0.001972
v 0.134896 -0.368092 -0.001972
v 0.188899 -0.368092 -0.001972
v 0.188899 -0.368092 -0.001972
v 0.175854 -0.285843 0.011292
v 0.175399 -0.368092 0.011292
v 0.175854 -0.285843 -0.015235
v 0.175399 -0.368092 -0.015235
v 0.252185 -0.285843 0.011292
v 0.252185 -0.285843 0.011292
v 0.252185 -0.368092 0.011292
v 0.252185 -0.285843 -0.015235
v 0.252185 -0.285843 -0.015235
v 0.252185 -0.368092 -0.015235
v 0.252185 -0.321115 0.011292
v 0.252185 -0.321115 0.011292
v 0.252185 -0.321115 -0.015235
v 0.252185 -0.321115 -0.015235
v 0.317355 -0.321115 -0.015235
v 0.317355 -0.321115 -0.015235
v 0.317355 -0.321115 0.011292
v 0.317355 -0.321115 0.011292
v 0.317355 -0.368092 -0.015235
v 0.317355 -0.368092 -0.015235
v 0.317355 -0.368092 0.011292
v 0.317355 -0.368092 0.011292
v 0.108685 0.461947 0.024555
v 0.055631 0.370055 0.024555
v 0.214792 0.461947 -0.028499
v 0.108685 0.461947 -0.028499
v 0.267846 0.370055 0.024555
v 0.214792 0.461947 0.024555
v 0.267846 0.370055 -0.028499
v 0.214792 0.278164 -0.028499
v 0.214792 0.278164 0.024555
v 0.055631 0.370055 -0.028499
v 0.108685 0.278164 -0.028499
v 0.108685 0.278164 0.024555
v 0.161739 0.278164 0.024555
v 0.161739 0.278164 -0.028499
v 0.128580 0.205004 -0.001972
v 0.194897 0.205004 -0.001972
v 0.208761 0.171869 -0.001972
v 0.114716 0.171869 -0.001972
vn 0.6517 0.1112 -0.7503
vn 0.0004 0.1658 0.9862
vn -0.6517 0.1110 -0.7503
vn 0.0004 0.1412 -0.9900
vn -0.0033 -0.1771 0.9842
vn -0.0033 -0.1771 -0.9842
vn -0.6326 -0.1419 -0.7614
vn 0.6284 -0.1411 -0.7650
vn -0.0000 -0.0015 -1.0000
vn -0.7071 -0.0009 0.7071
vn -0.0000 -0.0016 1.0000
vn 0.7071 -0.0009 0.7071
vn 0.7087 -0.7054 -0.0117
vn -0.0000 -0.6939 0.7200
vn -0.7087 -0.7054 -0.0117
vn -0.0000 -0.6682 -0.7440
vn -0.0035 -0.0043 1.0000
vn -0.0035 -0.0043 -1.0000
vn -0.6751 -0.0042 0.7377
vn -0.0000 1.0000 -0.0000
vn 0.0004 -0.0043 1.0000
vn 0.0004 -0.0043 -1.0000
vn -0.6992 -0.0041 0.7149
vn -0.0000 -1.0000 -0.0000
vn -0.0000 -0.0000 -1.0000
vn 1.0000 -0.0000 -0.0000
vn -0.0000 -0.0000 1.0000
vn -0.7071 -0.0000 0.7071
vn -1.0000 -0.0000 -0.0000
vn 0.7071 -0.0000 -0.7071
vn 0.5000 0.8660 -0.0000
vn -0.3536 -0.6124 0.7071
vn -0.5000 -0.8660 -0.0000
vn 0.3536 0.6124 -0.7071
vn -0.5000 0.8660 -0.0000
vn 0.3536 -0.6124 0.7071
vn 0.5000 -0.8660 -0.0000
vn -0.3536 0.6124 -0.7071
vn 0.7071 -0.0000 0.7071
vn -0.7071 -0.0000 -0.7071
vn 0.3536 0.6124 0.7071
vn -0.3536 -0.6124 -0.7071
vn -0.3536 0.6124 0.7071
vn 0.3536 -0.6124 -0.7071
vn -0.0000 0.7559 0.6547
vn -0.0000 -0.4091 -0.9125
vn -0.5916 -0.8063 -0.0000
vn 0.5916 -0.8063 -0.0000
vn 0.6186 0.1388 0.7733
vn -0.6186 0.1388 0.7733
vn -0.0000 0.1720 -0.9851
vn -0.0000 0.1720 0.9851
vn -0.0000 -0.0008 -1.0000
vn -0.0000 -0.0008 1.0000
vn -0.6247 -0.0005 0.7809
vn 0.6247 -0.0005 0.7809
vn -0.7004 0.1222 0.7032
vn -0.6096 -0.0010 -0.7927
vn 0.7004 0.1224 0.7032
vn 0.6096 -0.0010 -0.7927
vn -0.6326 -0.1419 0.7614
vn -0.6751 -0.0042 -0.7377
vn 0.6284 -0.1411 0.7650
vn 0.6882 -0.0082 0.7254
vn 0.6882 -0.0082 -0.7254
vn -0.6992 -0.0041 -0.7149
vn 0.7008 -0.0071 0.7133
vn 0.7008 -0.0071 -0.7133
vn 0.5332 -0.0032 0.8460
vn 0.5566 -0.0026 0.8308
vn 0.5332 -0.0032 -0.8460
vn 0.5566 -0.0026 -0.8308
vn -0.0000 -0.4091 0.9125
vn -0.0000 0.7559 -0.6547
vn -0.6186 0.1388 -0.7733
vn 0.6186 0.1388 -0.7733
vn 0.6247 -0.0005 -0.7809
vn -0.6247 -0.0005 -0.7809
vt 0.036339 0.067958
vt 0.033321 0.083783
vt 0.021710 0.077466
vt 0.027416 0.065939
vt 0.025344 0.100914
vt 0.009217 0.095157
vt 0.035167 0.051650
vt 0.036309 0.066886
vt 0.027390 0.067342
vt 0.026860 0.054898
vt 0.015122 0.042212
vt 0.027745 0.037016
vt 0.020093 0.057591
vt 0.010983 0.054706
vt 0.020393 0.064571
vt 0.000000 0.081645
vt 0.012148 0.068692
vt 0.117031 0.069411
vt 0.500000 0.077293
vt 0.498417 0.115653
vt 0.115182 0.100400
vt 0.116288 0.038348
vt 0.499999 0.038880
vt 0.058977 0.068255
vt 0.056110 0.091121
vt 0.056815 0.045729
vt 0.058852 0.068410
vt 0.115066 0.005077
vt 0.499885 0.000410
vt 0.115126 0.022536
vt 0.053293 0.034363
vt 0.048648 0.025661
vt 0.113489 0.116115
vt 0.496718 0.154056
vt 0.112709 0.133544
vt 0.047992 0.112155
vt 0.052584 0.102730
vt 0.012500 0.458201
vt 0.073169 0.458201
vt 0.023167 0.468680
vt 0.290375 0.468674
vt 0.241119 0.458198
vt 0.301419 0.458196
vt 0.073169 0.479159
vt 0.012500 0.479160
vt 0.301419 0.479151
vt 0.241120 0.479154
vt 0.323908 0.421609
vt 0.323908 0.361300
vt 0.351776 0.421609
vt 0.426007 0.421609
vt 0.453875 0.361300
vt 0.453875 0.421609
vt 0.213255 0.479155
vt 0.213255 0.458199
vt 0.161771 0.479156
vt 0.161771 0.458200
vt 0.426007 0.473099
vt 0.388891 0.473099
vt 0.388891 0.421609
vt 0.388891 0.421609
vt 0.388891 0.473099
vt 0.351776 0.473099
vt 0.124657 0.458200
vt 0.124658 0.479158
vt 0.388891 0.360941
vt 0.388891 0.360941
vt 0.224585 0.249450
vt 0.170519 0.336403
vt 0.157191 0.312523
vt 0.196410 0.248352
vt 0.144877 0.291054
vt 0.171029 0.247697
vt 0.402743 0.251694
vt 0.376747 0.208115
vt 0.389091 0.186663
vt 0.428210 0.250899
vt 0.456420 0.249721
vt 0.402430 0.162806
vt 0.069260 0.336262
vt 0.082447 0.312320
vt 0.094562 0.290851
vt 0.326526 0.208061
vt 0.314530 0.186647
vt 0.301261 0.162813
vt 0.015000 0.249378
vt 0.043224 0.248155
vt 0.068694 0.247318
vt 0.300448 0.251258
vt 0.275053 0.250512
vt 0.246835 0.249543
vt 0.062595 0.158627
vt 0.079827 0.181197
vt 0.094246 0.202480
vt 0.325474 0.296340
vt 0.311065 0.317699
vt 0.293853 0.340261
vt 0.177693 0.158623
vt 0.160465 0.181179
vt 0.146078 0.202522
vt 0.377255 0.296554
vt 0.391626 0.317804
vt 0.408815 0.340362
vt 0.120149 0.174835
vt 0.351350 0.324086
vt 0.088839 0.151812
vt 0.151452 0.151806
vt 0.382586 0.347136
vt 0.320063 0.347065
vt 0.123041 0.355321
vt 0.140625 0.389454
vt 0.082342 0.387902
vt 0.083289 0.354641
vt 0.121267 0.422361
vt 0.081947 0.420855
vt 0.163025 0.422975
vt 0.145440 0.388841
vt 0.203723 0.390394
vt 0.202777 0.423655
vt 0.164799 0.355934
vt 0.204118 0.357441
vt 0.034884 0.387335
vt 0.032890 0.355063
vt 0.057964 0.346215
vt 0.058342 0.387573
vt 0.056987 0.428222
vt 0.032890 0.418943
vt 0.253175 0.423232
vt 0.228101 0.432081
vt 0.227723 0.390723
vt 0.251182 0.390961
vt 0.253175 0.359352
vt 0.229078 0.350074
s 1
f 4/1/3 5/2/4 10/3/9 77/4/58
f 2/5/1 79/6/60 10/3/9 5/2/4
f 3/7/2 76/8/57 11/9/10 12/10/11
f 13/11/12 78/12/59 3/7/2 12/10/11
f 12/10/11 15/13/14 14/14/13 13/11/12
f 12/10/11 11/9/10 16/15/15 15/13/14
f 79/6/60 14/16/13 17/17/16 10/3/9
f 77/4/58 10/3/9 17/17/16 16/15/15
f 14/14/13 15/13/14 16/15/15 17/17/16
f 81/18/62 8/19/7 7/20/6 19/21/18
f 18/22/17 6/23/5 80/19/61 20/18/19
f 4/1/3 85/24/66 23/25/22 5/2/4
f 85/24/66 81/18/62 19/21/18 23/25/22
f 3/7/2 22/26/21 24/27/23 76/8/57
f 22/26/21 18/22/17 20/18/19 24/27/23
f 83/28/64 82/29/63 88/30/69
f 89/31/70 78/12/59 86/32/67
f 90/33/71 9/34/8 84/35/65
f 87/36/68 2/5/1 91/37/72
f 82/29/63 6/23/5 18/22/17 88/30/69
f 18/22/17 22/26/21 89/31/70 88/30/69
f 78/12/59 89/31/70 22/26/21 3/7/2
f 9/34/8 90/33/71 19/21/18 7/20/6
f 19/21/18 90/33/71 91/37/72 23/25/22
f 2/5/1 5/2/4 23/25/22 91/37/72
f 29/38/24 97/39/24 25/40/24
f 21/41/20 95/42/20 28/43/20
f 25/40/24 97/39/24 94/44/24 27/45/24
f 26/46/20 92/47/20 95/42/20 21/41/20
f 93/48/27 88/49/69 98/50/27
f 100/51/25 90/52/71 96/53/25
f 33/47/26 99/54/26 101/55/26 31/42/26
f 34/54/20 104/56/20 102/57/20 35/55/20
f 100/51/25 103/58/25 106/59/25 30/60/25
f 32/61/27 108/62/27 105/63/27 98/50/27
f 97/39/24 107/64/24 109/65/24 94/44/24
f 38/65/26 39/64/26 36/57/26 37/56/26
f 88/49/69 89/66/70 32/61/27 98/50/27
f 90/52/71 100/51/25 30/60/25 91/67/72
f 40/68/26 44/69/31 115/70/41 114/71/39
f 41/71/28 45/70/32 46/72/33 42/73/29
f 42/74/29 46/75/33 112/76/42 116/77/40
f 40/78/26 43/77/30 47/76/34 44/79/31
f 44/69/31 48/80/35 110/81/43 115/70/41
f 45/70/32 49/81/36 50/82/37 46/72/33
f 46/75/33 50/83/37 113/84/44 112/76/42
f 47/76/34 51/84/38 48/85/35 44/79/31
f 48/80/35 52/86/29 111/87/28 110/81/43
f 49/81/36 53/87/39 54/88/26 50/82/37
f 50/83/37 54/89/26 119/90/30 113/84/44
f 51/84/38 55/90/40 52/91/29 48/85/35
f 52/86/29 56/92/33 121/93/32 111/87/28
f 53/87/39 57/93/41 58/94/31 54/88/26
f 54/89/26 58/95/31 120/96/34 119/90/30
f 55/90/40 59/96/42 56/97/33 52/91/29
f 60/98/37 40/68/26 114/71/39 118/99/36
f 61/99/43 41/71/28 42/73/29 62/100/35
f 62/101/35 42/74/29 116/77/40 117/102/38
f 40/78/26 60/103/37 63/102/44 43/77/30
f 64/104/45 61/99/43 62/100/35
f 123/105/74 120/96/34 58/95/31
f 121/93/32 56/92/33 66/106/47 122/104/73
f 118/99/36 122/104/73 67/107/48 60/98/37
f 62/100/35 58/94/31 57/93/41 64/104/45
f 58/95/31 62/101/35 117/102/38 123/105/74
f 63/102/44 60/103/37 67/108/48 65/105/46
f 59/96/42 65/105/46 66/109/47 56/97/33
f 66/110/47 65/111/46 70/112/51 124/113/75
f 65/111/46 67/114/48 125/115/76 70/112/51
f 67/116/48 122/117/73 71/118/52 68/119/49
f 122/117/73 66/120/47 69/121/50 71/118/52
f 7/122/6 8/123/7 127/124/78 72/125/53
f 7/122/6 72/125/53 126/126/77 9/127/8
f 82/128/63 75/129/56 73/130/54 6/131/5
f 80/132/61 6/131/5 73/130/54 74/133/55
f 72/125/53 127/124/78 124/113/75 70/112/51
f 72/125/53 70/112/51 125/115/76 126/126/77
f 75/129/56 68/119/49 71/118/52 73/130/54
f 74/133/55 73/130/54 71/118/52 69/121/50
