# Blender 4.2.1 LTS
# www.blender.org
o Steel_Key
v 0.540568 -0.415606 -0.001972
v 0.514041 -0.415606 0.024555
v 0.487514 -0.415606 -0.001972
v 0.514041 -0.415606 -0.028499
v 0.513870 0.137047 0.024555
v 0.513870 0.137047 -0.028499
v 0.480711 0.137047 -0.001972
v 0.547028 0.137047 -0.001972
v 0.514041 -0.447823 -0.031151
v 0.473190 -0.447823 -0.005862
v 0.514041 -0.447823 0.034989
v 0.554892 -0.447823 -0.005862
v 0.540568 -0.479655 -0.001972
v 0.514041 -0.479655 0.024555
v 0.487514 -0.479655 -0.001972
v 0.514041 -0.479655 -0.028499
v 0.514004 -0.287717 0.024555
v 0.514004 -0.287717 -0.028499
v 0.486043 -0.287717 -0.001972
v 0.541966 -0.287717 -0.001972
v 0.514029 -0.369966 0.024555
v 0.514029 -0.369966 -0.028499
v 0.487027 -0.369966 -0.001972
v 0.541031 -0.369966 -0.001972
v 0.527985 -0.287717 0.011292
v 0.527530 -0.369966 0.011292
v 0.527985 -0.287717 -0.015235
v 0.527530 -0.369966 -0.015235
v 0.604316 -0.369966 -0.015235
v 0.604316 -0.287717 -0.015235
v 0.604316 -0.369966 0.011292
v 0.604316 -0.287717 0.011292
v 0.604316 -0.322989 0.011292
v 0.604316 -0.322989 -0.015235
v 0.669486 -0.322989 -0.015235
v 0.669486 -0.322989 0.011292
v 0.669486 -0.369966 0.011292
v 0.669486 -0.369966 -0.015235
v 0.646504 0.368182 -0.001972
v 0.619977 0.368182 0.024555
v 0.593450 0.368182 -0.001972
v 0.619977 0.368182 -0.028499
v 0.580187 0.483046 -0.001972
v 0.566924 0.460073 0.024555
v 0.553660 0.437101 -0.001972
v 0.566924 0.460073 -0.028499
v 0.447553 0.483046 -0.001972
v 0.460816 0.460073 0.024555
v 0.474080 0.437101 -0.001972
v 0.460816 0.460073 -0.028499
v 0.381236 0.368182 -0.001972
v 0.407763 0.368182 0.024555
v 0.434289 0.368182 -0.001972
v 0.407763 0.368182 -0.028499
v 0.447553 0.253317 -0.001972
v 0.460816 0.276290 0.024555
v 0.474080 0.299263 -0.001972
v 0.460816 0.276290 -0.028499
v 0.580187 0.253317 -0.001972
v 0.566924 0.276290 0.024555
v 0.553660 0.299263 -0.001972
v 0.566924 0.276290 -0.028499
v 0.513870 0.276290 0.024555
v 0.513870 0.276290 -0.028499
v 0.480711 0.253317 -0.001972
v 0.547028 0.253317 -0.001972
v 0.547028 0.203130 -0.001972
v 0.480711 0.203130 -0.001972
v 0.513870 0.203130 -0.028499
v 0.513870 0.203130 0.024555
v 0.513870 0.169996 -0.039590
v 0.513870 0.169996 0.035646
v 0.466848 0.169996 -0.001972
v 0.560892 0.169996 -0.001972
v 0.487514 -0.415606 -0.001972
v 0.473190 -0.447823 -0.005862
v 0.540568 -0.415606 -0.001972
v 0.554892 -0.447823 -0.005862
v 0.480711 0.137047 -0.001972
v 0.486043 -0.287717 -0.001972
v 0.547028 0.137047 -0.001972
v 0.541966 -0.287717 -0.001972
v 0.541966 -0.287717 -0.001972
v 0.487027 -0.369966 -0.001972
v 0.541031 -0.369966 -0.001972
v 0.541031 -0.369966 -0.001972
v 0.527985 -0.287717 0.011292
v 0.527530 -0.369966 0.011292
v 0.527985 -0.287717 -0.015235
v 0.527530 -0.369966 -0.015235
v 0.604316 -0.287717 0.011292
v 0.604316 -0.287717 0.011292
v 0.604316 -0.369966 0.011292
v 0.604316 -0.287717 -0.015235
v 0.604316 -0.287717 -0.015235
v 0.604316 -0.369966 -0.015235
v 0.604316 -0.322989 0.011292
v 0.604316 -0.322989 0.011292
v 0.604316 -0.322989 -0.015235
v 0.604316 -0.322989 -0.015235
v 0.669486 -0.322989 -0.015235
v 0.669486 -0.322989 -0.015235
v 0.669486 -0.322989 0.011292
v 0.669486 -0.322989 0.011292
v 0.669486 -0.369966 -0.015235
v 0.669486 -0.369966 -0.015235
v 0.669486 -0.369966 0.011292
v 0.669486 -0.369966 0.011292
v 0.460816 0.460073 0.024555
v 0.407763 0.368182 0.024555
v 0.566924 0.460073 -0.028499
v 0.460816 0.460073 -0.028499
v 0.619977 0.368182 0.024555
v 0.566924 0.460073 0.024555
v 0.619977 0.368182 -0.028499
v 0.566924 0.276290 -0.028499
v 0.566924 0.276290 0.024555
v 0.407763 0.368182 -0.028499
v 0.460816 0.276290 -0.028499
v 0.460816 0.276290 0.024555
v 0.513870 0.276290 0.024555
v 0.513870 0.276290 -0.028499
v 0.480711 0.203130 -0.001972
v 0.547028 0.203130 -0.001972
v 0.560892 0.169996 -0.001972
v 0.466848 0.169996 -0.001972
vn 0.6517 0.1112 -0.7503
vn 0.0004 0.1658 0.9862
vn -0.6517 0.1110 -0.7503
vn 0.0004 0.1412 -0.9900
vn -0.0033 -0.1771 0.9842
vn -0.0033 -0.1771 -0.9842
vn -0.6326 -0.1419 -0.7614
vn 0.6284 -0.1411 -0.7650
vn -0.0000 -0.0015 -1.0000
vn -0.7071 -0.0009 0.7071
vn -0.0000 -0.0016 1.0000
vn 0.7071 -0.0009 0.7071
vn 0.7087 -0.7054 -0.0117
vn -0.0000 -0.6939 0.7200
vn -0.7087 -0.7054 -0.0117
vn -0.0000 -0.6682 -0.7440
vn -0.0035 -0.0043 1.0000
vn -0.0035 -0.0043 -1.0000
vn -0.6751 -0.0042 0.7377
vn -0.0000 1.0000 -0.0000
vn 0.0004 -0.0043 1.0000
vn 0.0004 -0.0043 -1.0000
vn -0.6992 -0.0041 0.7149
vn -0.0000 -1.0000 -0.0000
vn -0.0000 -0.0000 -1.0000
vn 1.0000 -0.0000 -0.0000
vn -0.0000 -0.0000 1.0000
vn -0.7071 -0.0000 0.7071
vn -1.0000 -0.0000 -0.0000
vn 0.7071 -0.0000 -0.7071
vn 0.5000 0.8660 -0.0000
vn -0.3536 -0.6124 0.7071
vn -0.5000 -0.8660 -0.0000
vn 0.3536 0.6124 -0.7071
vn -0.5000 0.8660 -0.0000
vn 0.3536 -0.6124 0.7071
vn 0.5000 -0.8660 -0.0000
vn -0.3536 0.6124 -0.7071
vn 0.7071 -0.0000 0.7071
vn -0.7071 -0.0000 -0.7071
vn 0.3536 0.6124 0.7071
vn -0.3536 -0.6124 -0.7071
vn -0.3536 0.6124 0.7071
vn 0.3536 -0.6124 -0.7071
vn -0.0000 0.7559 0.6547
vn -0.0000 -0.4091 -0.9125
vn -0.5916 -0.8063 -0.0000
vn 0.5916 -0.8063 -0.0000
vn 0.6186 0.1388 0.7733
vn -0.6186 0.1388 0.7733
vn -0.0000 0.1720 -0.9851
vn -0.0000 0.1720 0.9851
vn -0.0000 -0.0008 -1.0000
vn -0.0000 -0.0008 1.0000
vn -0.6247 -0.0005 0.7809
vn 0.6247 -0.0005 0.7809
vn -0.7004 0.1222 0.7032
vn -0.6096 -0.0010 -0.7927
vn 0.7004 0.1224 0.7032
vn 0.6096 -0.0010 -0.7927
vn -0.6326 -0.1419 0.7614
vn -0.6751 -0.0042 -0.7377
vn 0.6284 -0.1411 0.7650
vn 0.6882 -0.0082 0.7254
vn 0.6882 -0.0082 -0.7254
vn -0.6992 -0.0041 -0.7149
vn 0.7008 -0.0071 0.7133
vn 0.7008 -0.0071 -0.7133
vn 0.5332 -0.0032 0.8460
vn 0.5566 -0.0026 0.8308
vn 0.5332 -0.0032 -0.8460
vn 0.5566 -0.0026 -0.8308
vn -0.0000 -0.4091 0.9125
vn -0.0000 0.7559 -0.6547
vn -0.6186 0.1388 -0.7733
vn 0.6186 0.1388 -0.7733
vn 0.6247 -0.0005 -0.7809
vn -0.6247 -0.0005 -0.7809
vt 0.541441 0.071652
vt 0.538496 0.087099
vt 0.527162 0.080933
vt 0.532732 0.069681
vt 0.530709 0.103821
vt 0.514968 0.098202
vt 0.540297 0.055734
vt 0.541412 0.070606
vt 0.532707 0.071051
vt 0.532189 0.058904
vt 0.520732 0.046521
vt 0.533053 0.041449
vt 0.525584 0.061532
vt 0.516692 0.058716
vt 0.525877 0.068346
vt 0.505971 0.085012
vt 0.517829 0.072368
vt 0.620207 0.073071
vt 0.994029 0.080764
vt 0.992485 0.118208
vt 0.618402 0.103319
vt 0.619481 0.042750
vt 0.994029 0.043268
vt 0.563540 0.071942
vt 0.560741 0.094262
vt 0.561429 0.049954
vt 0.563417 0.072094
vt 0.618288 0.010273
vt 0.993917 0.005717
vt 0.618347 0.027315
vt 0.557991 0.038859
vt 0.553457 0.030365
vt 0.616749 0.118659
vt 0.990826 0.155694
vt 0.615988 0.135671
vt 0.552816 0.114793
vt 0.557299 0.105594
vt 0.518172 0.452575
vt 0.577392 0.452575
vt 0.528584 0.462804
vt 0.789410 0.462798
vt 0.741331 0.452572
vt 0.800191 0.452570
vt 0.577392 0.473033
vt 0.518172 0.473033
vt 0.800191 0.473025
vt 0.741332 0.473027
vt 0.822143 0.416857
vt 0.822143 0.357989
vt 0.849345 0.416857
vt 0.921804 0.416857
vt 0.949006 0.357989
vt 0.949006 0.416857
vt 0.714133 0.473028
vt 0.714132 0.452573
vt 0.663878 0.473030
vt 0.663878 0.452574
vt 0.921804 0.467117
vt 0.885574 0.467117
vt 0.885574 0.416857
vt 0.885574 0.416857
vt 0.885574 0.467117
vt 0.849345 0.467117
vt 0.627651 0.452574
vt 0.627651 0.473031
vt 0.885574 0.357638
vt 0.885574 0.357638
vt 0.725192 0.248810
vt 0.672417 0.333686
vt 0.659408 0.310376
vt 0.697690 0.247738
vt 0.647388 0.289420
vt 0.672915 0.247099
vt 0.899095 0.251000
vt 0.873720 0.208462
vt 0.885769 0.187522
vt 0.923954 0.250224
vt 0.951490 0.249074
vt 0.898789 0.164235
vt 0.573576 0.333548
vt 0.586449 0.310178
vt 0.598274 0.289222
vt 0.824698 0.208409
vt 0.812988 0.187507
vt 0.800037 0.164242
vt 0.520612 0.248739
vt 0.548162 0.247546
vt 0.573024 0.246728
vt 0.799243 0.250574
vt 0.774455 0.249846
vt 0.746911 0.248901
vt 0.567071 0.160155
vt 0.583891 0.182186
vt 0.597965 0.202962
vt 0.823671 0.294579
vt 0.809607 0.315429
vt 0.792805 0.337452
vt 0.679420 0.160152
vt 0.662603 0.182169
vt 0.648560 0.203003
vt 0.874216 0.294789
vt 0.888243 0.315531
vt 0.905022 0.337551
vt 0.623250 0.175977
vt 0.848929 0.321663
vt 0.592688 0.153504
vt 0.653806 0.153498
vt 0.879419 0.344163
vt 0.818390 0.344093
vt 0.626073 0.352152
vt 0.643237 0.385470
vt 0.586346 0.383955
vt 0.587270 0.351488
vt 0.624341 0.417592
vt 0.585961 0.416121
vt 0.665102 0.418190
vt 0.647938 0.384872
vt 0.704829 0.386387
vt 0.703905 0.418854
vt 0.666834 0.352751
vt 0.705214 0.354222
vt 0.540021 0.383402
vt 0.538076 0.351901
vt 0.562550 0.343263
vt 0.562919 0.383634
vt 0.561597 0.423312
vt 0.538076 0.414255
vt 0.753099 0.418442
vt 0.728624 0.427079
vt 0.728255 0.386708
vt 0.751154 0.386940
vt 0.753099 0.356087
vt 0.729578 0.347030
s 1
f 3/1/3 4/2/4 9/3/9 76/4/58
f 1/5/1 78/6/60 9/3/9 4/2/4
f 2/7/2 75/8/57 10/9/10 11/10/11
f 12/11/12 77/12/59 2/7/2 11/10/11
f 11/10/11 14/13/14 13/14/13 12/11/12
f 11/10/11 10/9/10 15/15/15 14/13/14
f 78/6/60 13/16/13 16/17/16 9/3/9
f 76/4/58 9/3/9 16/17/16 15/15/15
f 13/14/13 14/13/14 15/15/15 16/17/16
f 80/18/62 7/19/7 6/20/6 18/21/18
f 17/22/17 5/23/5 79/19/61 19/18/19
f 3/1/3 84/24/66 22/25/22 4/2/4
f 84/24/66 80/18/62 18/21/18 22/25/22
f 2/7/2 21/26/21 23/27/23 75/8/57
f 21/26/21 17/22/17 19/18/19 23/27/23
f 82/28/64 81/29/63 87/30/69
f 88/31/70 77/12/59 85/32/67
f 89/33/71 8/34/8 83/35/65
f 86/36/68 1/5/1 90/37/72
f 81/29/63 5/23/5 17/22/17 87/30/69
f 17/22/17 21/26/21 88/31/70 87/30/69
f 77/12/59 88/31/70 21/26/21 2/7/2
f 8/34/8 89/33/71 18/21/18 6/20/6
f 18/21/18 89/33/71 90/37/72 22/25/22
f 1/5/1 4/2/4 22/25/22 90/37/72
f 28/38/24 96/39/24 24/40/24
f 20/41/20 94/42/20 27/43/20
f 24/40/24 96/39/24 93/44/24 26/45/24
f 25/46/20 91/47/20 94/42/20 20/41/20
f 92/48/27 87/49/69 97/50/27
f 99/51/25 89/52/71 95/53/25
f 32/47/26 98/54/26 100/55/26 30/42/26
f 33/54/20 103/56/20 101/57/20 34/55/20
f 99/51/25 102/58/25 105/59/25 29/60/25
f 31/61/27 107/62/27 104/63/27 97/50/27
f 96/39/24 106/64/24 108/65/24 93/44/24
f 37/65/26 38/64/26 35/57/26 36/56/26
f 87/49/69 88/66/70 31/61/27 97/50/27
f 89/52/71 99/51/25 29/60/25 90/67/72
f 39/68/26 43/69/31 114/70/41 113/71/39
f 40/71/28 44/70/32 45/72/33 41/73/29
f 41/74/29 45/75/33 111/76/42 115/77/40
f 39/78/26 42/77/30 46/76/34 43/79/31
f 43/69/31 47/80/35 109/81/43 114/70/41
f 44/70/32 48/81/36 49/82/37 45/72/33
f 45/75/33 49/83/37 112/84/44 111/76/42
f 46/76/34 50/84/38 47/85/35 43/79/31
f 47/80/35 51/86/29 110/87/28 109/81/43
f 48/81/36 52/87/39 53/88/26 49/82/37
f 49/83/37 53/89/26 118/90/30 112/84/44
f 50/84/38 54/90/40 51/91/29 47/85/35
f 51/86/29 55/92/33 120/93/32 110/87/28
f 52/87/39 56/93/41 57/94/31 53/88/26
f 53/89/26 57/95/31 119/96/34 118/90/30
f 54/90/40 58/96/42 55/97/33 51/91/29
f 59/98/37 39/68/26 113/71/39 117/99/36
f 60/99/43 40/71/28 41/73/29 61/100/35
f 61/101/35 41/74/29 115/77/40 116/102/38
f 39/78/26 59/103/37 62/102/44 42/77/30
f 63/104/45 60/99/43 61/100/35
f 122/105/74 119/96/34 57/95/31
f 120/93/32 55/92/33 65/106/47 121/104/73
f 117/99/36 121/104/73 66/107/48 59/98/37
f 61/100/35 57/94/31 56/93/41 63/104/45
f 57/95/31 61/101/35 116/102/38 122/105/74
f 62/102/44 59/103/37 66/108/48 64/105/46
f 58/96/42 64/105/46 65/109/47 55/97/33
f 65/110/47 64/111/46 69/112/51 123/113/75
f 64/111/46 66/114/48 124/115/76 69/112/51
f 66/116/48 121/117/73 70/118/52 67/119/49
f 121/117/73 65/120/47 68/121/50 70/118/52
f 6/122/6 7/123/7 126/124/78 71/125/53
f 6/122/6 71/125/53 125/126/77 8/127/8
f 81/128/63 74/129/56 72/130/54 5/131/5
f 79/132/61 5/131/5 72/130/54 73/133/55
f 71/125/53 126/124/78 123/113/75 69/112/51
f 71/125/53 69/112/51 124/115/76 125/126/77
f 74/129/56 67/119/49 70/118/52 72/130/54
f 73/133/55 72/130/54 70/118/52 68/121/50
